<svg width="27" height="28" viewBox="0 0 27 28" fill="none" xmlns="http://www.w3.org/2000/svg">
<g clip-path="url(#clip0)">
<path d="M13.4602 27.0197C20.6902 27.0197 26.5512 21.1587 26.5512 13.9287C26.5512 6.69871 20.6902 0.837646 13.4602 0.837646C6.2302 0.837646 0.369141 6.69871 0.369141 13.9287C0.369141 21.1587 6.2302 27.0197 13.4602 27.0197Z" fill="white"/>
<path d="M0.368164 13.9282C0.368164 18.849 3.08454 23.1334 7.09798 25.3698V2.48608C3.08454 4.72267 0.368164 9.0069 0.368164 13.9282Z" fill="#D32027"/>
<path d="M13.4591 27.0196C13.3087 27.0196 13.164 27.0144 13.0166 27.012C13.1632 27.0169 13.3106 27.0196 13.4591 27.0196Z" fill="white"/>
<path d="M13.459 0.836548C13.4549 0.836548 13.4514 0.836769 13.4473 0.836769C13.4513 0.836769 13.455 0.836548 13.459 0.836548C20.6895 0.836548 20.6895 27.0198 13.459 27.0198C15.7643 27.0198 17.9287 26.4218 19.8102 25.3758V2.48029C17.9287 1.43436 15.7642 0.836548 13.459 0.836548Z" fill="#E7E7E7"/>
<path d="M19.8105 2.48029V25.3756C23.83 23.1409 26.5511 18.8531 26.5511 13.9283C26.5511 9.00282 23.8301 4.71505 19.8105 2.48029Z" fill="#B52025"/>
<path d="M13.4593 0.836548C13.4552 0.836548 13.4517 0.836548 13.4476 0.836548C11.1428 0.838593 8.97832 1.43851 7.09766 2.4861V25.3697C8.86025 26.3517 10.8726 26.9404 13.016 27.0117C13.1638 27.0142 13.3086 27.0194 13.4593 27.0194C20.6898 27.0196 20.6898 0.836548 13.4593 0.836548Z" fill="#F3F1F2"/>
<path d="M18.5399 13.6916C18.3598 13.5196 17.9904 13.5386 17.9245 13.2527C17.8372 12.5505 18.1603 12.1417 18.3641 11.6724C17.3327 11.9137 16.5195 12.3108 16.5203 11.1458C15.9281 11.8699 15.2914 12.5939 15.0284 12.4625C14.6549 12.243 15.3868 10.3793 15.4669 9.39036C15.1055 9.5553 14.4135 9.91703 14.4135 9.91703C14.4135 9.91703 13.7844 8.68669 13.4515 8.07981V8.07318C13.4502 8.0744 13.4502 8.07545 13.4498 8.0765C13.449 8.07567 13.449 8.07445 13.4481 8.07318V8.07981C13.1147 8.68669 12.4861 9.91703 12.4861 9.91703C12.4861 9.91703 11.7936 9.5553 11.4327 9.39036C11.5123 10.3795 12.2443 12.2432 11.8707 12.4625C11.6076 12.5942 10.9711 11.8699 10.3793 11.1458C10.3793 12.3108 9.56655 11.9137 8.53548 11.6724C8.7389 12.1414 9.06199 12.5503 8.97393 13.2527C8.90904 13.5386 8.53941 13.5196 8.35938 13.6916C9.55599 14.8878 11.63 15.7762 10.6421 16.7639L13.3055 16.5154C13.3927 17.4154 13.111 18.5199 13.3555 19.1344C13.4128 19.1344 13.394 19.1344 13.4479 19.1344C13.4488 19.1344 13.45 19.1344 13.4512 19.1344C13.505 19.1344 13.4851 19.1344 13.542 19.1344C13.7915 18.4977 13.5065 17.4156 13.5937 16.5154L16.2567 16.7639C15.2698 15.7762 17.3437 14.8878 18.5399 13.6916Z" fill="#D32027"/>
</g>
<defs>
<clipPath id="clip0">
<rect width="26.1833" height="26.1833" fill="white" transform="translate(0.368164 0.836548)"/>
</clipPath>
</defs>
</svg>
