<svg width="22" height="22" viewBox="0 0 22 22" fill="none" xmlns="http://www.w3.org/2000/svg">
<g clip-path="url(#clip0)">
<path d="M14.3408 0.723633L13.0908 4.18937C14.2446 7.99705 14.2446 13.6486 13.0908 17.4564L14.3408 20.9218C18.5004 19.4509 21.4811 15.4859 21.4811 10.8225C21.4811 6.15976 18.5004 2.19455 14.3408 0.723633Z" fill="#E61E25"/>
<path d="M14.3406 4.18934V0.723611C13.2236 0.328565 12.0221 0.111572 10.7695 0.111572C12.4212 0.111572 10.1311 5.70929 14.3406 4.18934Z" fill="#E4E4E4"/>
<path d="M10.7697 21.534C12.0223 21.534 13.2238 21.317 14.3408 20.9219V17.4566C10.1736 17.0407 10.7697 21.534 10.7697 21.534Z" fill="#E4E4E4"/>
<path d="M0.0585938 10.8226C0.0585938 15.5016 3.05954 19.4771 7.2407 20.9361V0.709778C3.05954 2.1688 0.0585938 6.14427 0.0585938 10.8226Z" fill="#3757A6"/>
<path d="M14.3408 4.18939V17.4565C15.4947 13.6486 15.4947 7.99703 14.3408 4.18939Z" fill="#EF4F4E"/>
<path d="M14.3405 17.4565V4.18934C13.6112 1.78203 12.4211 0.111572 10.7694 0.111572C9.53241 0.111572 8.34564 0.323997 7.24023 0.709772V20.9362C8.34564 21.322 9.53241 21.5341 10.7694 21.5341C12.4211 21.534 13.6112 19.8636 14.3405 17.4565Z" fill="#F3F4F5"/>
</g>
<defs>
<clipPath id="clip0">
<rect width="21.4227" height="21.4227" fill="white" transform="translate(0.0585938 0.111511)"/>
</clipPath>
</defs>
</svg>
