<svg width="22" height="22" viewBox="0 0 22 22" fill="none" xmlns="http://www.w3.org/2000/svg">
<g clip-path="url(#clip0)">
<path d="M10.7646 21.4425C16.68 21.4425 21.4754 16.6471 21.4754 10.7316C21.4754 4.81618 16.68 0.020752 10.7646 0.020752C4.84913 0.020752 0.0537109 4.81618 0.0537109 10.7316C0.0537109 16.6471 4.84913 21.4425 10.7646 21.4425Z" fill="white"/>
<path d="M20.8631 7.15985H14.2637C14.5502 9.44797 14.552 11.9691 14.2691 14.2601H20.8773C21.2629 13.1549 21.4752 11.968 21.4752 10.7313C21.4754 9.47836 21.2582 8.27689 20.8631 7.15985Z" fill="#D32027"/>
<path d="M14.2634 7.15984H20.8628C20.8617 7.15644 20.8606 7.15359 20.8594 7.15052C19.4885 3.28514 15.9624 0.441283 11.7256 0.0637817C13.3651 0.962513 13.8439 3.80994 14.2634 7.15984Z" fill="#0B0B0B"/>
<path d="M11.7266 21.3981C15.9709 21.0199 19.5021 18.1662 20.8676 14.2905C20.8712 14.2802 20.8742 14.2701 20.878 14.2601H14.2695C13.8537 17.6281 13.3728 20.4956 11.7266 21.3981Z" fill="#F3C515"/>
<path d="M0.0527344 10.7313C0.0527344 11.9681 0.26498 13.1549 0.650577 14.2601H14.8205C15.1034 11.969 15.1016 9.44797 14.8151 7.15985H0.664824C0.269729 8.27693 0.0527344 9.4784 0.0527344 10.7313Z" fill="#DB2727"/>
<path d="M0.668431 7.15053C0.667255 7.15356 0.666215 7.15646 0.665039 7.15985H14.8155C14.3961 3.80996 13.3657 0.962573 11.7264 0.0638414C11.4093 0.035756 11.0886 0.0198364 10.7642 0.0198364C6.10465 0.0198364 2.14185 2.9958 0.668431 7.15053Z" fill="#151515"/>
<path d="M14.8203 14.2601H0.650391C0.653963 14.2701 0.657175 14.2802 0.660702 14.2905C2.12838 18.4559 6.09642 21.4423 10.7636 21.4423C11.088 21.4423 11.4087 21.4264 11.7257 21.398C13.3721 20.4956 14.4044 17.6281 14.8203 14.2601Z" fill="#F8D12E"/>
</g>
<defs>
<clipPath id="clip0">
<rect width="21.4227" height="21.4227" fill="white" transform="translate(0.0527344 0.0198364)"/>
</clipPath>
</defs>
</svg>
