<svg width="36" height="36" viewBox="0 0 36 36" fill="none" xmlns="http://www.w3.org/2000/svg">
<path d="M31.5001 15.18H21.3301L25.4401 10.95C21.3451 6.9 14.7151 6.75 10.6201 10.8C6.52513 14.865 6.52513 21.42 10.6201 25.485C14.7151 29.55 21.3451 29.55 25.4401 25.485C27.4801 23.475 28.5001 21.12 28.5001 18.15H31.5001C31.5001 21.12 30.1801 24.975 27.5401 27.585C22.2751 32.805 13.7251 32.805 8.46013 27.585C3.21013 22.38 3.16513 13.92 8.43013 8.715C13.6951 3.51 22.1401 3.51 27.4051 8.715L31.5001 4.5V15.18ZM18.7501 12V18.375L24.0001 21.495L22.9201 23.31L16.5001 19.5V12H18.7501Z" fill="#FD791A"/>
</svg>
