<svg width="18" height="18" viewBox="0 0 18 18" fill="none" xmlns="http://www.w3.org/2000/svg">
<path d="M12.75 8.25C13.005 8.25 13.2525 8.28 13.5 8.3175V4.7025L7.875 2.25L2.25 4.7025V8.385C2.25 11.79 4.65 14.9775 7.875 15.75C8.2875 15.6525 8.685 15.51 9.075 15.3375C8.5575 14.6025 8.25 13.71 8.25 12.75C8.25 10.2675 10.2675 8.25 12.75 8.25Z" fill="#2B5AD3"/>
<path d="M12.75 9.75002C11.0925 9.75002 9.75 11.0925 9.75 12.75C9.75 14.4075 11.0925 15.75 12.75 15.75C14.4075 15.75 15.75 14.4075 15.75 12.75C15.75 11.0925 14.4075 9.75002 12.75 9.75002ZM12.75 10.785C13.215 10.785 13.59 11.1675 13.59 11.625C13.59 12.0825 13.2075 12.465 12.75 12.465C12.2925 12.465 11.91 12.0825 11.91 11.625C11.91 11.1675 12.285 10.785 12.75 10.785ZM12.75 14.8125C12.0525 14.8125 11.445 14.4675 11.07 13.935C11.1075 13.395 12.2025 13.125 12.75 13.125C13.2975 13.125 14.3925 13.395 14.43 13.935C14.055 14.4675 13.4475 14.8125 12.75 14.8125Z" fill="#2B5AD3"/>
</svg>
