<svg width="26" height="26" viewBox="0 0 26 26" fill="none" xmlns="http://www.w3.org/2000/svg">
<path d="M13.0003 2.16663C7.02033 2.16663 2.16699 7.01996 2.16699 13C2.16699 18.98 7.02033 23.8333 13.0003 23.8333C18.9803 23.8333 23.8337 18.98 23.8337 13C23.8337 7.01996 18.9803 2.16663 13.0003 2.16663ZM13.0653 20.5833V18.4058C13.0437 18.4058 13.022 18.4058 13.0003 18.4058C11.6137 18.4058 10.227 17.875 9.16533 16.8241C7.31283 14.9716 7.08533 12.1116 8.47199 10.01L9.66366 11.2016C8.89449 12.6425 9.08949 14.4625 10.3028 15.6758C11.0612 16.4341 12.0578 16.7916 13.0545 16.77V14.4516L16.1203 17.5175L13.0653 20.5833ZM17.5178 15.99L16.3262 14.7983C17.0953 13.3575 16.9003 11.5375 15.687 10.3241C14.9395 9.57663 13.9753 9.20829 13.0003 9.20829C12.9787 9.20829 12.957 9.20829 12.9353 9.20829V11.5375L9.86949 8.48246L12.9353 5.41663V7.60496C14.3437 7.58329 15.7628 8.09246 16.8353 9.17579C18.677 11.0175 18.9045 13.8883 17.5178 15.99Z" fill="#FC781A"/>
</svg>
