<svg width="36" height="36" viewBox="0 0 36 36" fill="none" xmlns="http://www.w3.org/2000/svg">
<path d="M28.5 3H7.5C5.835 3 4.5 4.35 4.5 6V27C4.5 28.65 5.835 30 7.5 30H13.5L18 34.5L22.5 30H28.5C30.15 30 31.5 28.65 31.5 27V6C31.5 4.35 30.15 3 28.5 3ZM19.5 27H16.5V24H19.5V27ZM22.605 15.375L21.255 16.755C20.175 17.85 19.5 18.75 19.5 21H16.5V20.25C16.5 18.6 17.175 17.1 18.255 16.005L20.115 14.115C20.67 13.575 21 12.825 21 12C21 10.35 19.65 9 18 9C16.35 9 15 10.35 15 12H12C12 8.685 14.685 6 18 6C21.315 6 24 8.685 24 12C24 13.32 23.46 14.52 22.605 15.375Z" fill="#D32B90"/>
</svg>
