<svg width="15" height="23" viewBox="0 0 15 23" fill="none" xmlns="http://www.w3.org/2000/svg">
<path d="M5.39258 15.2471C5.39258 13.8213 5.55371 12.6982 5.87598 11.8779C6.19824 11.0479 6.7207 10.3301 7.44336 9.72461C8.16602 9.11914 8.71289 8.56738 9.08398 8.06934C9.46484 7.56152 9.65527 7.00488 9.65527 6.39941C9.65527 4.9248 9.02051 4.1875 7.75098 4.1875C7.16504 4.1875 6.69141 4.40234 6.33008 4.83203C5.96875 5.26172 5.77832 5.84277 5.75879 6.5752H0.807617C0.827148 4.62207 1.44238 3.10352 2.65332 2.01953C3.86426 0.925781 5.56348 0.378906 7.75098 0.378906C9.92871 0.378906 11.6133 0.881836 12.8047 1.8877C14.0059 2.89355 14.6064 4.32422 14.6064 6.17969C14.6064 6.99023 14.4453 7.72754 14.123 8.3916C13.8008 9.05566 13.2832 9.73438 12.5703 10.4277L10.8857 11.9951C10.4072 12.4541 10.0752 12.9277 9.88965 13.416C9.7041 13.8945 9.60156 14.5049 9.58203 15.2471H5.39258ZM4.79199 19.7002C4.79199 18.9775 5.05078 18.3867 5.56836 17.9277C6.0957 17.459 6.75 17.2246 7.53125 17.2246C8.3125 17.2246 8.96191 17.459 9.47949 17.9277C10.0068 18.3867 10.2705 18.9775 10.2705 19.7002C10.2705 20.4229 10.0068 21.0186 9.47949 21.4873C8.96191 21.9463 8.3125 22.1758 7.53125 22.1758C6.75 22.1758 6.0957 21.9463 5.56836 21.4873C5.05078 21.0186 4.79199 20.4229 4.79199 19.7002Z" fill="#E8670B"/>
</svg>
