<svg width="18" height="18" viewBox="0 0 18 18" fill="none" xmlns="http://www.w3.org/2000/svg">
<path d="M14.3546 9.70497C14.3846 9.47997 14.3996 9.24747 14.3996 8.99997C14.3996 8.75997 14.3846 8.51997 14.3471 8.29497L15.8696 7.10997C16.0046 7.00497 16.0421 6.80247 15.9596 6.65247L14.5196 4.16247C14.4296 3.99747 14.2421 3.94497 14.0771 3.99747L12.2846 4.71747C11.9096 4.43247 11.5121 4.19247 11.0696 4.01247L10.7996 2.10747C10.7696 1.92747 10.6196 1.79997 10.4396 1.79997H7.55959C7.37959 1.79997 7.23709 1.92747 7.20709 2.10747L6.93709 4.01247C6.49459 4.19247 6.08959 4.43997 5.72209 4.71747L3.92959 3.99747C3.76459 3.93747 3.57709 3.99747 3.48709 4.16247L2.05459 6.65247C1.96459 6.80997 1.99459 7.00497 2.14459 7.10997L3.66709 8.29497C3.62959 8.51997 3.59959 8.76747 3.59959 8.99997C3.59959 9.23247 3.61459 9.47997 3.65209 9.70497L2.12959 10.89C1.99459 10.995 1.95709 11.1975 2.03959 11.3475L3.47959 13.8375C3.56959 14.0025 3.75709 14.055 3.92209 14.0025L5.71459 13.2825C6.08959 13.5675 6.48709 13.8075 6.92959 13.9875L7.19959 15.8925C7.23709 16.0725 7.37959 16.2 7.55959 16.2H10.4396C10.6196 16.2 10.7696 16.0725 10.7921 15.8925L11.0621 13.9875C11.5046 13.8075 11.9096 13.5675 12.2771 13.2825L14.0696 14.0025C14.2346 14.0625 14.4221 14.0025 14.5121 13.8375L15.9521 11.3475C16.0421 11.1825 16.0046 10.995 15.8621 10.89L14.3546 9.70497ZM8.99959 11.7C7.51459 11.7 6.29959 10.485 6.29959 8.99997C6.29959 7.51497 7.51459 6.29997 8.99959 6.29997C10.4846 6.29997 11.6996 7.51497 11.6996 8.99997C11.6996 10.485 10.4846 11.7 8.99959 11.7Z" fill="#2BD35A"/>
</svg>
