<svg width="20" height="20" viewBox="0 0 20 20" fill="none" xmlns="http://www.w3.org/2000/svg">
<path d="M17.842 9.65008L10.342 2.15008C10.042 1.85008 9.62533 1.66675 9.16699 1.66675H3.33366C2.41699 1.66675 1.66699 2.41675 1.66699 3.33341V9.16675C1.66699 9.62508 1.85033 10.0417 2.15866 10.3501L9.65866 17.8501C9.95866 18.1501 10.3753 18.3334 10.8337 18.3334C11.292 18.3334 11.7087 18.1501 12.0087 17.8417L17.842 12.0084C18.1503 11.7084 18.3337 11.2917 18.3337 10.8334C18.3337 10.3751 18.142 9.95008 17.842 9.65008ZM4.58366 5.83342C3.89199 5.83342 3.33366 5.27508 3.33366 4.58341C3.33366 3.89175 3.89199 3.33341 4.58366 3.33341C5.27533 3.33341 5.83366 3.89175 5.83366 4.58341C5.83366 5.27508 5.27533 5.83342 4.58366 5.83342Z" fill="white"/>
</svg>
