<svg width="22" height="22" viewBox="0 0 22 22" fill="none" xmlns="http://www.w3.org/2000/svg">
<g clip-path="url(#clip0)">
<path d="M14.4756 1.00543L13.2256 4.47117C14.3794 8.27885 14.3794 13.9304 13.2256 17.7382L14.4756 21.2036C18.6352 19.7327 21.6159 15.7677 21.6159 11.1043C21.6159 6.44156 18.6352 2.47635 14.4756 1.00543Z" fill="#E63026"/>
<path d="M14.4754 4.47114V1.00541C13.3583 0.610364 12.1569 0.393372 10.9043 0.393372C12.556 0.393372 10.2658 5.99109 14.4754 4.47114Z" fill="#E4E4E4"/>
<path d="M10.9045 21.8159C12.157 21.8159 13.3585 21.5989 14.4756 21.2038V17.7384C10.3083 17.3225 10.9045 21.8159 10.9045 21.8159Z" fill="#E4E4E4"/>
<path d="M0.193359 11.1044C0.193359 15.7834 3.19431 19.7589 7.37546 21.2179V0.991577C3.19431 2.4506 0.193359 6.42607 0.193359 11.1044Z" fill="#359846"/>
<path d="M14.4756 4.47119V17.7383C15.6295 13.9304 15.6295 8.27883 14.4756 4.47119Z" fill="#EF4C4C"/>
<path d="M14.4752 17.7384V4.47114C13.746 2.06383 12.5558 0.393372 10.9041 0.393372C9.66717 0.393372 8.48041 0.605796 7.375 0.991571V21.218C8.48041 21.6038 9.66717 21.8159 10.9041 21.8159C12.5558 21.8159 13.746 20.1454 14.4752 17.7384Z" fill="#F3F4F5"/>
</g>
<defs>
<clipPath id="clip0">
<rect width="21.4227" height="21.4227" fill="white" transform="translate(0.193359 0.393311)"/>
</clipPath>
</defs>
</svg>
