<svg width="27" height="27" viewBox="0 0 27 27" fill="none" xmlns="http://www.w3.org/2000/svg">
<g clip-path="url(#clip0)">
<path d="M17.4994 1.45868L15.9717 5.69457C17.3819 10.3484 17.3819 17.2558 15.9717 21.9099L17.4994 26.1454C22.5834 24.3476 26.2265 19.5015 26.2265 13.8017C26.2265 8.10283 22.5834 3.25647 17.4994 1.45868Z" fill="#E63026"/>
<path d="M17.4994 5.69451V1.45862C16.1341 0.975785 14.6657 0.710571 13.1348 0.710571C15.1535 0.710571 12.3544 7.55222 17.4994 5.69451Z" fill="#E4E4E4"/>
<path d="M13.1347 26.8936C14.6656 26.8936 16.1341 26.6284 17.4994 26.1455V21.9101C12.4061 21.4017 13.1347 26.8936 13.1347 26.8936Z" fill="#E4E4E4"/>
<path d="M0.0429688 13.8019C0.0429688 19.5207 3.71079 24.3796 8.8211 26.1629V1.44177C3.71079 3.22502 0.0429688 8.08393 0.0429688 13.8019Z" fill="#359846"/>
<path d="M17.499 5.69458V21.9099C18.9094 17.2558 18.9094 10.3484 17.499 5.69458Z" fill="#EF4C4C"/>
<path d="M17.4994 21.91V5.69451C16.608 2.75224 15.1534 0.710571 13.1347 0.710571C11.6228 0.710571 10.1723 0.970202 8.82129 1.4417V26.1629C10.1723 26.6344 11.6228 26.8937 13.1347 26.8937C15.1534 26.8936 16.608 24.8519 17.4994 21.91Z" fill="#F3F4F5"/>
</g>
<defs>
<clipPath id="clip0">
<rect width="26.1833" height="26.1833" fill="white" transform="translate(0.0429688 0.71051)"/>
</clipPath>
</defs>
</svg>
