<svg width="30" height="30" viewBox="0 0 30 30" fill="none" xmlns="http://www.w3.org/2000/svg">
<g clip-path="url(#clip0)">
<path d="M15.1464 29.4286C23.0337 29.4286 29.4276 23.0347 29.4276 15.1474C29.4276 7.26011 23.0337 0.866211 15.1464 0.866211C7.25913 0.866211 0.865234 7.26011 0.865234 15.1474C0.865234 23.0347 7.25913 29.4286 15.1464 29.4286Z" fill="white"/>
<path d="M15.1464 29.4286C23.0337 29.4286 29.4276 23.0347 29.4276 15.1474C29.4276 7.26011 23.0337 0.866211 15.1464 0.866211C7.25913 0.866211 0.865234 7.26011 0.865234 15.1474C0.865234 23.0347 7.25913 29.4286 15.1464 29.4286Z" fill="white"/>
<path d="M28.6116 10.3852C28.6101 10.3807 28.6087 10.3769 28.6071 10.3728C26.7793 5.21897 22.0777 1.42716 16.4287 0.923828C18.6145 2.12214 19.2529 5.91871 19.8122 10.3852C20.1942 13.436 20.1966 16.7976 19.8194 19.8522C19.2649 24.3428 18.6238 28.1662 16.4288 29.3695C22.0879 28.8653 26.7962 25.0604 28.6169 19.8928C28.6216 19.879 28.6257 19.8655 28.6306 19.8522C29.1448 18.3785 29.4278 16.796 29.4278 15.1471C29.4278 13.4766 29.1384 11.8746 28.6116 10.3852Z" fill="#EFECEC"/>
<path d="M20.5473 10.3852C19.9884 5.91867 18.6146 2.12216 16.4286 0.923847C16.0058 0.886399 15.5782 0.865173 15.1457 0.865173C8.93294 0.865173 3.6494 4.83312 1.68484 10.3728C1.68327 10.3768 1.68188 10.3807 1.68032 10.3852C1.15358 11.8746 0.864258 13.4765 0.864258 15.1471C0.864258 16.7962 1.14725 18.3785 1.66138 19.8521C1.66615 19.8655 1.67043 19.879 1.67513 19.8927C3.63203 25.4466 8.92275 29.4285 15.1457 29.4285C15.5782 29.4285 16.0058 29.4073 16.4285 29.3694C18.6236 28.1661 20 24.3427 20.5545 19.8521C20.9318 16.7973 20.9294 13.436 20.5473 10.3852Z" fill="#F3F2F2"/>
<path d="M15.1461 20.4088C18.0518 20.4088 20.4074 18.0533 20.4074 15.1475C20.4074 12.2418 18.0518 9.88623 15.1461 9.88623C12.2403 9.88623 9.88477 12.2418 9.88477 15.1475C9.88477 18.0533 12.2403 20.4088 15.1461 20.4088Z" fill="#EC1C24"/>
</g>
<defs>
<clipPath id="clip0">
<rect width="28.5636" height="28.5636" fill="white" transform="translate(0.864258 0.865173)"/>
</clipPath>
</defs>
</svg>
