<svg width="22" height="23" viewBox="0 0 22 23" fill="none" xmlns="http://www.w3.org/2000/svg">
<g clip-path="url(#clip0)">
<path d="M11.2431 22.21C17.1585 22.21 21.954 17.4146 21.954 11.4992C21.954 5.5837 17.1585 0.788269 11.2431 0.788269C5.32764 0.788269 0.532227 5.5837 0.532227 11.4992C0.532227 17.4146 5.32764 22.21 11.2431 22.21Z" fill="white"/>
<path d="M21.3416 7.92749H14.7422C15.0287 10.2156 15.0305 12.7368 14.7476 15.0278H21.3559C21.7415 13.9223 21.9537 12.7356 21.9537 11.4988C21.9539 10.2461 21.7367 9.04458 21.3416 7.92749Z" fill="#EFECEC"/>
<path d="M14.7419 7.92749H21.3414C21.3402 7.9241 21.3392 7.92125 21.338 7.91817C19.9671 4.05284 16.4409 1.20898 12.2041 0.831482C13.8437 1.73021 14.3224 4.57764 14.7419 7.92749Z" fill="#E63026"/>
<path d="M12.2051 22.1657C16.4494 21.7876 19.9807 18.9339 21.3462 15.0582C21.3497 15.0479 21.3528 15.0378 21.3565 15.0278H14.748C14.3322 18.3958 13.8514 21.2633 12.2051 22.1657Z" fill="#2B479D"/>
<path d="M0.53125 11.4988C0.53125 12.7356 0.743496 13.9223 1.12909 15.0278H15.299C15.5819 12.7366 15.5801 10.2156 15.2936 7.92749H1.14329C0.748199 9.04458 0.53125 10.2461 0.53125 11.4988Z" fill="#EFEFEF"/>
<path d="M1.14695 7.91823C1.14577 7.92126 1.14473 7.92416 1.14355 7.92755H15.294C14.8746 4.57766 13.8442 1.73027 12.2049 0.831539C11.8879 0.803409 11.5672 0.787354 11.2428 0.787354C6.58325 0.787354 2.62046 3.76345 1.14695 7.91823Z" fill="#E73B36"/>
<path d="M15.2988 15.0278H1.12891C1.13248 15.0378 1.13569 15.0479 1.13922 15.0582C2.60689 19.2236 6.57489 22.21 11.2421 22.21C11.5665 22.21 11.8872 22.1941 12.2043 22.1657C13.8505 21.2633 14.8829 18.3958 15.2988 15.0278Z" fill="#3757A6"/>
</g>
<defs>
<clipPath id="clip0">
<rect width="21.4227" height="21.4227" fill="white" transform="translate(0.53125 0.787354)"/>
</clipPath>
</defs>
</svg>
