<svg width="734" height="549" viewBox="0 0 734 549" fill="none" xmlns="http://www.w3.org/2000/svg">
<path class="bounceInDown" d="M637.193 346.054L644.583 358.77L651.851 371.486L659.241 358.77L666.509 346.176L656.455 346.054V297.13L647.49 297.009L647.369 346.054H637.193Z" fill="#212529"/>
<path class="bounceInDown" d="M663.238 312.388L667.599 320.018L671.96 327.526L676.321 320.018L680.803 312.388H674.746V283.203H669.416L669.295 312.388H663.238Z" fill="#212529"/>
<path class="bounceInUp" d="M113.638 25.4312L106.37 12.7156L98.9801 0L91.7118 12.7156L84.3223 25.4312H94.498L94.3768 74.4771H103.462V25.4312H113.638Z" fill="#212529"/>
<path class="bounceInUp" d="M84.8075 57.6442L80.3253 50.0149L75.9643 42.2644L71.4822 50.0149L67 57.6442H73.1781L73.057 87.314H78.6294V57.6442H84.8075Z" fill="#212529"/>
<path d="M733.742 548.535C733.742 548.656 569.476 548.899 366.931 548.899C164.265 548.777 0 548.656 0 548.535C0 548.414 164.265 548.172 366.931 548.172C569.476 548.172 733.742 548.293 733.742 548.535Z" fill="#263238"/>
<path d="M513.867 132.19H141.484V421.864H513.867V132.19Z" fill="#181B1F"/>
<path d="M141.984 421.364V132.69H513.367V421.364H141.984Z" stroke="white" stroke-opacity="0.1"/>
<path d="M513.746 421.864C513.746 419.684 513.625 307.06 513.504 132.19L513.746 132.432C407.749 132.432 279.583 132.432 141.484 132.432L141.848 132.069C141.848 236.458 141.848 335.155 141.848 421.742L141.606 421.5C362.443 421.742 511.323 421.864 513.746 421.864C511.202 421.864 362.443 421.985 141.363 422.106H141.121V421.864C141.121 335.397 141.121 236.579 141.121 132.19V131.827H141.484C279.583 131.827 407.87 131.827 513.746 131.827H513.988V132.069C513.867 307.06 513.746 419.684 513.746 421.864Z" fill="#263238"/>
<g opacity="0.2">
<path d="M243.848 397.522C243.727 397.522 243.484 366.036 243.484 327.163C243.484 288.289 243.606 256.803 243.848 256.803C243.969 256.803 244.211 288.289 244.211 327.163C244.09 366.036 243.969 397.522 243.848 397.522Z" fill="white"/>
</g>
<g opacity="0.2">
<path d="M405.447 397.522C405.326 397.522 405.084 366.036 405.084 327.163C405.084 288.289 405.205 256.803 405.447 256.803C405.69 256.803 405.811 288.289 405.811 327.163C405.69 366.036 405.569 397.522 405.447 397.522Z" fill="white"/>
</g>
<g opacity="0.2">
<path d="M298.966 397.522C298.845 397.522 298.603 357.317 298.603 307.665C298.603 258.014 298.724 217.808 298.966 217.808C299.208 217.808 299.329 258.014 299.329 307.665C299.329 357.317 299.208 397.522 298.966 397.522Z" fill="white"/>
</g>
<path d="M187.154 397.522C187.033 397.522 186.791 357.317 186.791 307.665C186.791 258.014 186.912 217.808 187.154 217.808C187.397 217.808 187.518 258.014 187.518 307.665C187.518 357.317 187.276 397.522 187.154 397.522Z" fill="#263238"/>
<path d="M468.803 397.522C468.682 397.522 468.439 357.317 468.439 307.665C468.439 258.014 468.561 217.808 468.803 217.808C468.924 217.808 469.166 258.014 469.166 307.665C469.166 357.317 469.045 397.522 468.803 397.522Z" fill="#263238"/>
<g opacity="0.2">
<path d="M347.301 397.522C347.18 397.522 346.938 351.019 346.938 293.739C346.938 236.458 347.059 189.955 347.301 189.955C347.422 189.955 347.664 236.458 347.664 293.739C347.664 351.141 347.543 397.522 347.301 397.522Z" fill="white"/>
</g>
<path d="M245.18 256.924C245.18 257.651 244.574 258.256 243.847 258.256C243.12 258.256 242.515 257.651 242.515 256.924C242.515 256.197 243.12 255.592 243.847 255.592C244.574 255.592 245.18 256.197 245.18 256.924Z" fill="#263238"/>
<path d="M298.966 219.141C299.702 219.141 300.299 218.544 300.299 217.808C300.299 217.073 299.702 216.476 298.966 216.476C298.23 216.476 297.634 217.073 297.634 217.808C297.634 218.544 298.23 219.141 298.966 219.141Z" fill="#263238"/>
<path d="M298.966 222.41C296.422 222.41 294.362 220.351 294.362 217.808C294.362 215.265 296.422 213.207 298.966 213.207C301.51 213.207 303.569 215.265 303.569 217.808C303.569 220.351 301.51 222.41 298.966 222.41ZM298.966 213.449C296.543 213.449 294.605 215.386 294.605 217.808C294.605 220.23 296.543 222.168 298.966 222.168C301.388 222.168 303.327 220.23 303.327 217.808C303.327 215.386 301.388 213.449 298.966 213.449Z" fill="#263238"/>
<path d="M347.3 191.287C348.036 191.287 348.633 190.691 348.633 189.955C348.633 189.219 348.036 188.623 347.3 188.623C346.564 188.623 345.968 189.219 345.968 189.955C345.968 190.691 346.564 191.287 347.3 191.287Z" fill="#263238"/>
<path d="M405.448 259.588C406.184 259.588 406.78 258.992 406.78 258.256C406.78 257.52 406.184 256.924 405.448 256.924C404.712 256.924 404.115 257.52 404.115 258.256C404.115 258.992 404.712 259.588 405.448 259.588Z" fill="#263238"/>
<path d="M468.803 219.141C469.539 219.141 470.136 218.544 470.136 217.808C470.136 217.073 469.539 216.476 468.803 216.476C468.067 216.476 467.471 217.073 467.471 217.808C467.471 218.544 468.067 219.141 468.803 219.141Z" fill="#263238"/>
<path d="M188.486 219.14C188.486 219.867 187.881 220.473 187.154 220.473C186.427 220.473 185.821 219.867 185.821 219.14C185.821 218.414 186.427 217.808 187.154 217.808C187.881 217.808 188.486 218.414 188.486 219.14Z" fill="#263238"/>
<path d="M481.28 281.386C481.28 281.386 480.917 281.508 480.19 281.75C479.463 281.871 478.494 282.234 477.162 282.719C474.618 283.808 471.105 286.109 467.592 289.985C463.957 293.86 460.444 299.309 455.841 305.364C453.539 308.392 450.996 311.662 447.846 314.568C446.271 316.142 444.575 317.475 442.637 318.807C440.699 320.139 438.639 321.229 436.459 322.198C431.977 324.014 426.768 324.983 421.559 324.741C418.894 324.62 416.229 324.377 413.563 323.772C410.898 323.166 408.112 322.076 405.811 320.381C403.388 318.686 401.45 316.506 399.754 314.084C398.058 311.662 396.604 309.119 395.15 306.454C392.243 301.247 389.214 295.919 385.823 290.59C382.431 285.262 379.402 279.57 375.889 273.999C372.376 268.429 368.621 262.858 363.654 258.256C361.231 255.955 358.445 253.897 355.417 252.443C352.388 250.869 349.117 249.9 345.725 249.537C342.333 249.174 338.82 249.416 335.429 250.142C332.037 250.869 328.645 252.08 325.616 253.897C319.438 257.408 314.471 262.616 310.232 268.186C305.992 273.757 302.6 279.812 299.208 285.867C295.937 291.922 292.424 297.735 288.548 303.185C284.671 308.634 280.552 313.599 275.707 317.838C274.495 318.928 273.284 319.897 271.951 320.865C270.74 321.834 269.286 322.682 267.954 323.409C265.168 324.862 262.381 326.194 259.353 326.92C257.899 327.405 256.325 327.526 254.871 327.768C254.144 327.889 253.417 327.889 252.569 327.889C251.842 327.889 251.116 327.889 250.389 327.889C247.36 327.768 244.574 327.163 241.788 326.315C236.336 324.498 231.612 321.713 227.251 318.686C222.89 315.658 219.014 312.631 215.137 309.845C211.261 307.06 207.505 304.638 203.629 302.821C199.752 301.126 195.876 299.915 192.121 299.552C188.365 299.188 184.973 299.431 181.824 300.157C180.976 300.278 180.37 300.642 179.643 300.884C178.916 301.126 178.19 301.368 177.584 301.731C176.251 302.458 175.04 302.942 173.95 303.79C171.648 305.122 169.952 306.818 168.498 308.15C167.772 308.876 167.166 309.603 166.56 310.209C165.954 310.814 165.47 311.42 164.985 312.025C164.137 313.115 163.532 313.963 163.047 314.568C162.563 315.174 162.32 315.416 162.32 315.416C162.32 315.416 162.441 315.053 162.926 314.447C163.289 313.842 163.895 312.994 164.743 311.783C165.107 311.177 165.591 310.572 166.197 309.966C166.802 309.361 167.408 308.634 168.014 307.786C169.468 306.333 171.163 304.638 173.465 303.185C174.555 302.337 175.888 301.731 177.099 301.005C177.705 300.642 178.553 300.399 179.28 300.157C180.007 299.915 180.733 299.552 181.581 299.431C184.731 298.462 188.365 298.22 192.242 298.583C196.118 298.946 200.116 300.036 204.113 301.731C208.111 303.427 211.987 305.97 215.864 308.755C219.74 311.541 223.738 314.568 227.978 317.475C232.218 320.381 236.942 323.045 242.151 324.741C244.816 325.588 247.481 326.073 250.389 326.194C251.116 326.194 251.842 326.194 252.448 326.194C253.175 326.194 253.902 326.194 254.629 326.073C256.082 325.831 257.536 325.709 258.868 325.225C264.562 323.772 269.771 320.502 274.374 316.385C279.099 312.267 283.096 307.302 286.973 301.974C290.728 296.645 294.12 290.832 297.512 284.898C300.904 278.964 304.296 272.788 308.657 266.975C312.897 261.284 318.106 255.834 324.647 252.08C327.918 250.264 331.431 248.931 335.065 248.205C338.699 247.478 342.334 247.236 345.968 247.599C349.602 247.963 353.115 249.052 356.386 250.627C359.656 252.201 362.443 254.381 364.987 256.803C370.074 261.647 373.951 267.339 377.464 272.909C380.977 278.601 384.005 284.172 387.397 289.5C390.789 294.829 393.818 300.157 396.725 305.486C399.632 310.693 402.419 315.779 406.901 318.928C409.081 320.502 411.504 321.592 414.169 322.198C416.713 322.924 419.378 323.045 421.922 323.166C427.01 323.409 431.977 322.561 436.338 320.865C438.518 320.018 440.456 318.807 442.395 317.596C444.212 316.264 445.908 314.931 447.483 313.478C450.632 310.572 453.176 307.423 455.478 304.517C460.081 298.462 463.715 293.133 467.471 289.258C471.105 285.383 474.86 283.082 477.525 282.113C478.858 281.629 479.948 281.386 480.675 281.265C480.917 281.386 481.28 281.386 481.28 281.386Z" fill="#E8670B"/>
<g opacity="0.2">
<path d="M250.752 164.766H185.821V168.399H250.752V164.766Z" fill="white"/>
</g>
<g opacity="0.2">
<path d="M217.923 173.243H185.821V176.876H217.923V173.243Z" fill="white"/>
</g>
<path d="M508.295 108.575H146.451C143.423 108.575 141 110.997 141 114.025V132.19H513.746V114.025C513.746 111.118 511.323 108.575 508.295 108.575Z" fill="#181B1F"/>
<path d="M160.261 120.928C160.261 122.381 159.17 123.471 157.717 123.471C156.263 123.471 155.173 122.381 155.173 120.928C155.173 119.474 156.263 118.385 157.717 118.385C159.17 118.385 160.261 119.474 160.261 120.928Z" fill="white"/>
<path d="M171.406 120.928C171.406 122.381 170.316 123.471 168.862 123.471C167.409 123.471 166.318 122.381 166.318 120.928C166.318 119.474 167.409 118.385 168.862 118.385C170.316 118.385 171.406 119.474 171.406 120.928Z" fill="white"/>
<path d="M182.551 120.928C182.551 122.381 181.46 123.471 180.007 123.471C178.553 123.471 177.463 122.381 177.463 120.928C177.463 119.474 178.553 118.385 180.007 118.385C181.339 118.385 182.551 119.474 182.551 120.928Z" fill="white"/>
<path d="M230.044 262.01H85.6457C83.9498 262.01 82.4961 260.557 82.4961 258.862V202.55C82.4961 200.854 83.9498 199.401 85.6457 199.401H230.044C231.74 199.401 233.194 200.854 233.194 202.55V258.741C233.194 260.557 231.74 262.01 230.044 262.01Z" fill="#E0E0E0"/>
<path d="M113.75 219.262C113.75 223.137 110.601 226.285 106.724 226.285C102.848 226.285 99.6982 223.137 99.6982 219.262C99.6982 215.386 102.848 212.238 106.724 212.238C110.601 212.238 113.75 215.386 113.75 219.262Z" fill="#C8C8C8"/>
<path d="M169.717 214.418H120.776V217.082H169.717V214.418Z" fill="#C8C8C8"/>
<path d="M215.992 220.594H120.776V223.258H215.992V220.594Z" fill="white"/>
<path d="M113.75 240.818C113.75 244.693 110.601 247.842 106.724 247.842C102.848 247.842 99.6982 244.693 99.6982 240.818C99.6982 236.943 102.848 233.794 106.724 233.794C110.601 233.794 113.75 236.943 113.75 240.818Z" fill="#C8C8C8"/>
<path d="M145.731 235.974H120.776V238.638H145.731V235.974Z" fill="#C8C8C8"/>
<path d="M215.992 242.15H120.776V244.814H215.992V242.15Z" fill="white"/>
<path d="M254.704 419.712H69.8456C67.1805 419.712 65 417.532 65 414.868V341.844C65 339.18 67.1805 337 69.8456 337H254.704C257.369 337 259.55 339.18 259.55 341.844V414.868C259.429 417.532 257.369 419.712 254.704 419.712Z" fill="#E0E0E0"/>
<path d="M100.614 376.963L100.493 360.251C95.5266 360.251 90.5599 362.189 86.6834 365.701C82.0801 369.697 79.1728 375.752 80.0207 383.018C80.1419 383.866 80.263 384.593 80.3842 385.44L100.614 380.839V376.963Z" fill="#C8C8C8"/>
<path d="M121.45 371.756C118.664 365.822 113.092 361.099 105.097 360.373C104.854 360.373 104.612 360.373 104.491 360.373C104.37 360.373 104.249 360.373 104.127 360.373C103.764 360.373 103.279 360.373 102.916 360.373L103.037 377.084V381.081L123.267 385.44C123.631 383.987 123.752 382.534 123.752 381.081C123.51 377.932 122.783 374.662 121.45 371.756Z" fill="#C8C8C8"/>
<g opacity="0.2">
<path opacity="0.2" d="M121.45 371.756C118.664 365.822 113.092 361.099 105.097 360.373C104.854 360.373 104.612 360.373 104.491 360.373C104.37 360.373 104.249 360.373 104.127 360.373C103.764 360.373 103.279 360.373 102.916 360.373L103.037 377.084V381.081L123.267 385.44C123.631 383.987 123.752 382.534 123.752 381.081C123.51 377.932 122.783 374.662 121.45 371.756Z" fill="black"/>
</g>
<path d="M101.705 383.018L81.4746 387.62C83.534 396.824 91.7715 403.727 101.705 403.727C111.638 403.727 119.876 396.703 121.935 387.378L101.705 383.018Z" fill="#C8C8C8"/>
<g opacity="0.1">
<path opacity="0.1" d="M101.705 383.018L81.4746 387.62C83.534 396.824 91.7715 403.727 101.705 403.727C111.638 403.727 119.876 396.703 121.935 387.378L101.705 383.018Z" fill="black"/>
</g>
<path d="M239.683 365.217H137.078V369.818H239.683V365.217Z" fill="white"/>
<path d="M239.683 377.448H137.078V382.05H239.683V377.448Z" fill="white"/>
<path d="M192.56 391.011H137.078V395.613H192.56V391.011Z" fill="white"/>
<path d="M528.289 500.579H345.853C340.281 500.579 335.678 495.977 335.678 490.407V315.537C335.678 309.966 340.281 305.365 345.853 305.365H528.289C533.862 305.365 538.465 309.966 538.465 315.537V490.286C538.465 495.977 533.983 500.579 528.289 500.579Z" fill="#E6E6E6"/>
<path d="M356.513 439.06H349.851V440.998H356.513V439.06Z" fill="#263238"/>
<path d="M373.472 449.354H364.992V451.291H373.472V449.354Z" fill="#263238"/>
<path d="M403.031 449.354H394.551V451.291H403.031V449.354Z" fill="#263238"/>
<path d="M432.71 449.354H424.23V451.291H432.71V449.354Z" fill="#263238"/>
<path d="M462.268 449.354H453.788V451.291H462.268V449.354Z" fill="#263238"/>
<path d="M491.947 449.354H483.467V451.291H491.947V449.354Z" fill="#263238"/>
<path d="M521.626 449.354H513.146V451.291H521.626V449.354Z" fill="#263238"/>
<path d="M356.513 413.508H349.851V415.445H356.513V413.508Z" fill="#263238"/>
<path d="M356.513 365.31H349.851V367.247H356.513V365.31Z" fill="#263238"/>
<path d="M356.513 341.089H349.851V343.027H356.513V341.089Z" fill="#263238"/>
<path d="M356.877 389.409H350.214V391.346H356.877V389.409Z" fill="#263238"/>
<path d="M521.384 440.998C521.384 440.998 521.142 440.998 520.657 440.998C520.173 440.998 519.446 440.998 518.598 440.998C516.781 440.998 513.995 440.998 510.603 440.998C503.577 440.998 493.522 440.998 481.045 441.119C455.969 441.119 421.444 441.119 383.285 441.24C375.411 441.24 367.537 441.24 360.148 441.24H359.784V440.877C359.784 408.179 359.905 379.478 359.905 358.891C359.905 348.598 360.026 340.363 360.026 334.671C360.026 331.886 360.026 329.706 360.026 328.131C360.026 327.405 360.026 326.799 360.026 326.436C360.026 326.073 360.026 325.831 360.026 325.831C360.026 325.831 360.026 326.073 360.026 326.436C360.026 326.799 360.026 327.405 360.026 328.131C360.026 329.585 360.026 331.886 360.026 334.671C360.026 340.363 360.026 348.598 360.148 358.891C360.148 379.478 360.269 408.179 360.269 440.877L359.905 440.513C367.295 440.513 375.169 440.513 383.043 440.513C421.202 440.513 455.727 440.634 480.802 440.634C493.28 440.634 503.456 440.755 510.36 440.755C513.874 440.755 516.539 440.755 518.356 440.755C519.204 440.755 519.93 440.755 520.415 440.755C521.142 440.998 521.384 440.998 521.384 440.998Z" fill="#263238"/>
<path d="M523.201 390.377C523.201 390.499 488.07 390.741 444.824 390.741C401.577 390.741 366.446 390.62 366.446 390.377C366.446 390.135 401.577 390.014 444.824 390.014C488.191 390.014 523.201 390.135 523.201 390.377Z" fill="#263238"/>
<path d="M523.201 366.278C523.201 366.399 488.07 366.642 444.824 366.642C401.577 366.642 366.446 366.521 366.446 366.278C366.446 366.157 401.577 365.915 444.824 365.915C488.191 365.915 523.201 366.157 523.201 366.278Z" fill="#263238"/>
<path d="M523.201 342.058C523.201 342.179 488.07 342.421 444.824 342.421C401.577 342.421 366.446 342.3 366.446 342.058C366.446 341.937 401.577 341.695 444.824 341.695C488.191 341.695 523.201 341.937 523.201 342.058Z" fill="#263238"/>
<path d="M523.201 414.477C523.201 414.598 488.07 414.84 444.824 414.84C401.577 414.84 366.446 414.719 366.446 414.477C366.446 414.355 401.577 414.113 444.824 414.113C488.191 414.113 523.201 414.234 523.201 414.477Z" fill="#263238"/>
<path d="M368.021 435.79C368.021 431.794 368.021 414.356 368.021 414.356L381.347 393.647L390.432 400.55L408.967 371.728L419.869 379.478L435.133 352.836L447.489 362.888L466.023 327.647L486.011 367.126L502.244 347.387L521.263 341.937V435.669H368.021V435.79Z" fill="#EFA26C"/>
<path d="M523.201 334.429C523.201 334.429 523.08 334.429 522.838 334.429C522.595 334.429 522.232 334.429 521.869 334.429C521.021 334.429 519.688 334.429 517.992 334.429C514.6 334.429 509.634 334.429 503.334 334.55L503.455 334.429C499.216 339.999 493.885 346.902 487.828 354.895L487.707 355.016H487.586C476.199 355.016 462.874 355.016 448.337 355.016L448.579 354.895C443.37 363.493 437.798 372.697 432.104 382.385C426.532 391.709 421.081 400.792 415.872 409.269L415.629 409.632L415.387 409.269C407.634 398.612 400.487 388.803 394.188 380.084H394.672C386.556 392.678 379.893 402.972 375.29 410.238C372.988 413.871 371.171 416.656 369.839 418.594C369.233 419.563 368.748 420.289 368.385 420.774C368.022 421.258 367.9 421.5 367.9 421.5C367.9 421.5 368.022 421.258 368.385 420.774C368.748 420.289 369.112 419.563 369.717 418.594C370.929 416.656 372.746 413.75 375.048 410.238C379.651 402.972 386.192 392.557 394.188 379.963L394.43 379.599L394.672 379.963C400.971 388.682 408.24 398.491 415.993 409.148H415.508C420.596 400.671 426.047 391.588 431.62 382.264C437.434 372.697 443.007 363.372 448.095 354.895L448.216 354.774H448.337C462.874 354.774 476.199 354.774 487.586 354.774L487.344 354.895C493.522 346.902 498.852 340.12 503.092 334.55V334.429H503.213C509.512 334.429 514.358 334.55 517.871 334.55C519.567 334.55 520.778 334.55 521.747 334.55C522.111 334.55 522.474 334.55 522.717 334.55C523.08 334.429 523.201 334.429 523.201 334.429Z" fill="#263238"/>
<path d="M400.971 386.866C400.971 387.713 400.244 388.319 399.517 388.319C398.79 388.319 398.063 387.713 398.063 386.866C398.063 386.018 398.79 385.412 399.517 385.412C400.244 385.412 400.971 386.139 400.971 386.866Z" fill="#263238"/>
<path d="M446.277 361.192C446.277 362.04 445.551 362.645 444.824 362.645C443.976 362.645 443.37 362.04 443.37 361.192C443.37 360.345 444.097 359.739 444.824 359.739C445.551 359.739 446.277 360.345 446.277 361.192Z" fill="#263238"/>
<path d="M481.407 354.895C481.407 355.743 480.68 356.348 479.954 356.348C479.227 356.348 478.5 355.743 478.5 354.895C478.5 354.047 479.227 353.442 479.954 353.442C480.68 353.442 481.407 354.047 481.407 354.895Z" fill="#263238"/>
<path d="M374.684 484.352C380.037 484.352 384.375 480.177 384.375 475.027C384.375 469.877 380.037 465.702 374.684 465.702C369.332 465.702 364.993 469.877 364.993 475.027C364.993 480.177 369.332 484.352 374.684 484.352Z" fill="white"/>
<path d="M513.026 468.73H398.791V472.242H513.026V468.73Z" fill="white"/>
<path d="M446.278 477.449H398.791V480.961H446.278V477.449Z" fill="white"/>
<path d="M601.942 265.401H479.228C475.957 265.401 473.292 262.737 473.292 259.467V159.801C473.292 156.531 475.957 153.867 479.228 153.867H601.942C605.213 153.867 607.878 156.531 607.878 159.801V259.467C607.878 262.737 605.213 265.401 601.942 265.401Z" fill="#E6E6E6"/>
<path d="M503.94 198.553H496.672V253.291H503.94V198.553Z" fill="#E8670B"/>
<path d="M537.012 194.073H529.743V253.291H537.012V194.073Z" fill="#E8670B"/>
<path d="M571.173 186.564H563.904V253.291H571.173V186.564Z" fill="#E8670B"/>
<path d="M555.061 226.649H547.793V253.291H555.061V226.649Z" fill="#E8670B"/>
<g opacity="0.2">
<path opacity="0.2" d="M555.061 226.649H547.793V253.291H555.061V226.649Z" fill="black"/>
</g>
<path d="M512.42 192.619H505.151V253.291H512.42V192.619Z" fill="#E8670B"/>
<g opacity="0.1">
<path opacity="0.1" d="M512.42 192.619H505.151V253.291H512.42V192.619Z" fill="black"/>
</g>
<path d="M545.975 179.904H538.707V253.291H545.975V179.904Z" fill="#E8670B"/>
<g opacity="0.1">
<path opacity="0.1" d="M545.975 179.904H538.707V253.291H545.975V179.904Z" fill="black"/>
</g>
<path d="M589.828 179.904H582.56V253.291H589.828V179.904Z" fill="#E8670B"/>
<g opacity="0.2">
<path opacity="0.2" d="M589.828 179.904H582.56V253.291H589.828V179.904Z" fill="black"/>
</g>
<path d="M580.38 165.493H573.111V253.291H580.38V165.493Z" fill="#E8670B"/>
<g opacity="0.1">
<path opacity="0.1" d="M580.38 165.493H573.111V253.291H580.38V165.493Z" fill="black"/>
</g>
<path d="M521.385 214.781H514.116V253.291H521.385V214.781Z" fill="#E8670B"/>
<g opacity="0.2">
<path opacity="0.2" d="M521.385 214.781H514.116V253.291H521.385V214.781Z" fill="black"/>
</g>
<path d="M600.246 256.561C600.246 256.682 574.322 256.924 542.462 256.924C510.481 256.924 484.679 256.803 484.679 256.561C484.679 256.439 510.603 256.197 542.462 256.197C574.322 256.318 600.246 256.439 600.246 256.561Z" fill="#263238"/>
<path d="M485.648 243.482H481.166V244.935H485.648V243.482Z" fill="#263238"/>
<path d="M485.648 223.985H481.166V225.438H485.648V223.985Z" fill="#263238"/>
<path d="M485.648 187.412H481.166V188.865H485.648V187.412Z" fill="#263238"/>
<path d="M485.648 168.884H481.166V170.337H485.648V168.884Z" fill="#263238"/>
<path d="M485.89 205.698H481.408V207.151H485.89V205.698Z" fill="#263238"/>
<style>
.bounceInUp {
  animation: 1s bounceInUp linear infinite alternate;
}
.bounceInDown {
  animation: 1s bounceInDown linear infinite alternate;
}
@keyframes bounceInUp {
  from { transform: translateY(5px); }
  to { transform: translateY(-5px); }
}
@keyframes bounceInDown {
  from { transform: translateY(-5px); }
  to { transform: translateY(5px); }
}
</style>
</svg>
