<svg width="22" height="22" viewBox="0 0 22 22" fill="none" xmlns="http://www.w3.org/2000/svg">
<g clip-path="url(#clip0)">
<path d="M11.1094 21.9568C14.5366 21.9568 17.5852 20.3459 19.5457 17.8416H13.9042C13.1759 20.2693 12.7695 21.9568 11.1094 21.9568Z" fill="#C42126"/>
<path d="M10.4722 21.9383C10.4707 21.9383 10.4693 21.9381 10.4678 21.9381C10.4693 21.9381 10.4708 21.9383 10.4722 21.9383Z" fill="#C42126"/>
<path d="M13.9042 4.6494H19.5458C17.5851 2.14547 14.5365 0.53418 11.1094 0.53418C12.7695 0.53418 13.1759 2.22172 13.9042 4.6494Z" fill="#C42126"/>
<path d="M10.4678 0.55323C10.4693 0.55323 10.4707 0.552994 10.4722 0.552994C10.4708 0.55296 10.4693 0.55296 10.4678 0.55323Z" fill="#C42126"/>
<path d="M19.5461 4.64941H13.9043C15.0429 8.44434 15.0429 14.0472 13.9043 17.8416H19.5456C20.9696 16.0231 21.8208 13.7346 21.8208 11.2456C21.821 8.75672 20.9697 6.46807 19.5461 4.64941Z" fill="#FFC40C"/>
<path d="M11.1089 21.9569C10.8958 21.9569 10.684 21.9506 10.4736 21.9384C10.687 21.9503 10.8992 21.9569 11.1089 21.9569Z" fill="#C42126"/>
<path d="M10.4736 0.552949C10.684 0.540421 10.8958 0.53418 11.1089 0.53418C10.8992 0.53418 10.687 0.541099 10.4736 0.552949Z" fill="#C42126"/>
<path d="M14.6916 17.8416H2.67285C4.5101 20.1886 7.30343 21.751 10.4676 21.9381C10.4697 21.9381 10.4715 21.9384 10.4736 21.9384C10.6839 21.9506 10.8957 21.9568 11.1088 21.9568C12.7689 21.9568 13.9632 20.2693 14.6916 17.8416Z" fill="#D32030"/>
<path d="M2.67285 4.6494H14.6916C13.9632 2.22172 12.7689 0.53418 11.1089 0.53418C10.8957 0.53418 10.684 0.540421 10.4736 0.552949C10.4716 0.552949 10.4697 0.553265 10.4677 0.553265C7.30343 0.740187 4.5101 2.30277 2.67285 4.6494Z" fill="#D32030"/>
<path d="M0.397461 11.2456C0.397461 13.7346 1.24867 16.0231 2.67273 17.8416H14.6915C15.8301 14.047 15.8301 8.44411 14.6915 4.64941H2.67273C1.24867 6.46807 0.397461 8.75672 0.397461 11.2456Z" fill="#FFD034"/>
</g>
<defs>
<clipPath id="clip0">
<rect width="21.4227" height="21.4227" fill="white" transform="translate(0.397461 0.53418)"/>
</clipPath>
</defs>
</svg>
