<svg width="27" height="27" viewBox="0 0 27 27" fill="none" xmlns="http://www.w3.org/2000/svg">
<g clip-path="url(#clip0)">
<path d="M26.7821 14.8503H0.71582V14.8507H26.7821V14.8503Z" fill="#C42126"/>
<path d="M25.4232 7.70355H2.07324V7.70394H25.4232V7.70355Z" fill="#C42126"/>
<path d="M26.3507 10.0854H1.14453V10.0858H26.3507V10.0854Z" fill="#C42126"/>
<path d="M6.28403 24.3783H21.214L21.2147 24.3775H6.2832L6.28403 24.3783Z" fill="#C42126"/>
<path d="M13.7479 0.53418C13.4907 0.53418 13.2356 0.543466 12.9824 0.557949H14.5135C14.2601 0.543466 14.005 0.53418 13.7479 0.53418Z" fill="#C42126"/>
<path d="M26.7855 12.4678H0.710938V12.4682H26.7855V12.4678Z" fill="#C42126"/>
<path d="M17.6187 5.32166H23.87C23.1275 4.41772 22.2645 3.61754 21.3085 2.94012H16.6143C17.0027 3.62351 17.3367 4.42988 17.6187 5.32166Z" fill="#E7E7E7"/>
<path d="M16.6138 2.94007H21.308C19.3674 1.56484 17.0375 0.703632 14.5144 0.557922H14.1113C15.2989 0.70739 15.8444 1.58629 16.6138 2.94007Z" fill="#DC3027"/>
<path d="M26.3529 10.0856C26.1201 9.2555 25.808 8.45901 25.4244 7.7041H18.2324C18.3781 8.46874 18.4931 9.26743 18.5782 10.0856H26.3529Z" fill="#E7E7E7"/>
<path d="M17.8278 7.7037H25.424C24.9912 6.85228 24.4711 6.05331 23.87 5.32178H17.2344C17.4684 6.06243 17.667 6.8614 17.8278 7.7037Z" fill="#DC3027"/>
<path d="M18.8525 14.8497H26.7809C26.8186 14.4469 26.8398 14.0386 26.8398 13.626C26.8398 13.2355 26.8194 12.85 26.7859 12.468H18.8544C18.8802 13.2601 18.8798 14.058 18.8525 14.8497Z" fill="#E7E7E7"/>
<path d="M26.7871 12.4676C26.7153 11.6496 26.568 10.8538 26.3528 10.0861H18.2441C18.3256 10.866 18.3793 11.6639 18.4056 12.4676H26.7871Z" fill="#DC3027"/>
<path d="M18.0947 19.6138H25.3891C25.7782 18.8597 26.0952 18.0626 26.333 17.2319H18.4474C18.3606 18.0513 18.2427 18.8498 18.0947 19.6138Z" fill="#E7E7E7"/>
<path d="M26.3333 17.2317C26.5531 16.4642 26.7056 15.6684 26.7815 14.8502H18.6058C18.5779 15.6545 18.5225 16.4522 18.4395 17.2317H26.3333Z" fill="#DC3027"/>
<path d="M21.2149 24.3774C22.1848 23.7027 23.06 22.9017 23.8143 21.9959H17.6719C17.3848 22.8914 17.0439 23.6965 16.6484 24.3774H21.2149Z" fill="#E7E7E7"/>
<path d="M17.4404 21.9958H23.8139C24.4221 21.2651 24.95 20.4661 25.3893 19.6138H18.0413C17.8783 20.4567 17.6776 21.2561 17.4404 21.9958Z" fill="#DC3027"/>
<path d="M13.2755 26.7082C13.2488 26.7073 13.2221 26.7061 13.1953 26.7053C13.2221 26.706 13.2488 26.7073 13.2755 26.7082Z" fill="#DC3027"/>
<path d="M13.749 26.7174C16.5245 26.7174 19.0962 25.8511 21.2142 24.3783H16.4761C15.6352 25.8271 15.0804 26.7174 13.749 26.7174Z" fill="#DC3027"/>
<path d="M13.7478 26.7174C13.5892 26.7174 13.4316 26.7137 13.2744 26.7081C13.4332 26.7135 13.591 26.7174 13.7478 26.7174Z" fill="#C42126"/>
<path d="M17.047 2.94012H6.18972C5.23349 3.61754 4.37068 4.41767 3.62793 5.32166H18.0512C17.7692 4.42988 17.4354 3.62351 17.047 2.94012Z" fill="#F3F4F5"/>
<path d="M6.19043 2.94007H17.0477C16.2781 1.58629 15.2994 0.70739 14.1118 0.557922H12.9838C10.4607 0.703632 8.1308 1.56484 6.19043 2.94007Z" fill="#E73625"/>
<path d="M1.14551 10.0856H18.9905C18.9053 9.26727 18.7904 8.46874 18.6446 7.7041H2.07404C1.69037 8.45907 1.37828 9.2555 1.14551 10.0856Z" fill="#F3F4F5"/>
<path d="M3.62804 5.32159C3.02735 6.05313 2.50687 6.85204 2.07422 7.70352H18.6446C18.484 6.86138 18.2854 6.06247 18.0513 5.32159C18.0513 5.32159 3.62804 5.32159 3.62804 5.32159Z" fill="#E73625"/>
<path d="M0.657227 13.626C0.657227 14.0386 0.678729 14.4469 0.716151 14.8497H19.1504C19.1777 14.058 19.1781 13.2603 19.1523 12.4682H0.711177C0.677679 12.8501 0.657227 13.2356 0.657227 13.626Z" fill="#F3F4F5"/>
<path d="M0.710938 12.4676H19.1518C19.1256 11.6637 19.0716 10.866 18.9904 10.0861H1.14502C0.929833 10.854 0.782465 11.6496 0.710938 12.4676Z" fill="#E73625"/>
<path d="M18.9848 17.2317H1.16504C1.40278 18.0627 1.72007 18.8595 2.10889 19.6136H18.6321C18.7802 18.8498 18.8977 18.0513 18.9848 17.2317Z" fill="#F3F4F5"/>
<path d="M1.16395 17.2317H18.9837C19.0666 16.4522 19.1222 15.6543 19.1501 14.8502H0.71582C0.79166 15.6685 0.944444 16.4642 1.16395 17.2317Z" fill="#E73625"/>
<path d="M6.28298 24.3774H17.0071C17.4026 23.6963 17.7436 22.8914 18.0306 21.9959H3.68359C4.4379 22.9017 5.31287 23.7027 6.28298 24.3774Z" fill="#F3F4F5"/>
<path d="M2.1084 19.6138C2.54768 20.466 3.07557 21.265 3.68373 21.9957H18.0307C18.2676 21.2561 18.4683 20.4567 18.6314 19.6138H2.1084Z" fill="#E73625"/>
<path d="M13.1951 26.7052C13.2216 26.706 13.248 26.7073 13.2745 26.7081C13.4321 26.7137 13.59 26.7174 13.7489 26.7174C15.0803 26.7174 16.166 25.8271 17.0071 24.3782H6.28418C8.26015 25.7525 10.632 26.5984 13.1951 26.7052Z" fill="#E73625"/>
<path d="M13.4791 0.541077C6.77031 0.677555 1.30234 5.85747 0.713867 12.4464H13.4793V0.541077H13.4791Z" fill="#283991"/>
<path d="M3.27634 7.9516L3.47578 8.56572H4.12197L3.59921 8.94547L3.79887 9.56004L3.27634 9.18007L2.75398 9.56004L2.95325 8.94547L2.43066 8.56572H3.07685L3.27634 7.9516Z" fill="#EFEFEF"/>
<path d="M3.27634 10.1213L3.47578 10.7358H4.12197L3.59921 11.1155L3.79887 11.7301L3.27634 11.3501L2.75398 11.7301L2.95325 11.1155L2.43066 10.7358H3.07685L3.27634 10.1213Z" fill="#EFEFEF"/>
<path d="M5.44648 4.69635L5.64598 5.31069H6.29194L5.76935 5.69067L5.96885 6.30479L5.44648 5.92526L4.9239 6.30479L5.12339 5.69067L4.60059 5.31069H5.24677L5.44648 4.69635Z" fill="#EFEFEF"/>
<path d="M5.44648 6.86639L5.64598 7.48074H6.29194L5.76935 7.86027L5.96885 8.47483L5.44648 8.0953L4.9239 8.47483L5.12339 7.86027L4.60059 7.48074H5.24677L5.44648 6.86639Z" fill="#EFEFEF"/>
<path d="M5.44648 9.03638L5.64598 9.65094H6.29194L5.76935 10.0303L5.96885 10.6448L5.44648 10.2649L4.9239 10.6448L5.12339 10.0303L4.60059 9.65094H5.24677L5.44648 9.03638Z" fill="#EFEFEF"/>
<path d="M1.62909 10.6449L1.42943 10.0303L1.95201 9.65079H1.30621L1.29173 9.60596C1.22081 9.82529 1.15675 10.0473 1.09766 10.2718L1.10678 10.265L1.62909 10.6449Z" fill="#EFEFEF"/>
<path d="M2.75442 7.38998L3.27678 7.01007L3.79937 7.38998L3.59971 6.77542L4.12229 6.3955H3.47611L3.27662 5.78137L3.07713 6.3955H2.83899C2.79477 6.46249 2.75199 6.52988 2.70898 6.59787L2.95375 6.77542L2.75442 7.38998Z" fill="#EFEFEF"/>
<path d="M5.44686 3.7552L5.96922 4.13473L5.76973 3.5206L6.29209 3.14069H5.91897C5.60207 3.3776 5.29634 3.62834 5.0026 3.89289L4.92383 4.13473L5.44686 3.7552Z" fill="#EFEFEF"/>
<path d="M7.09375 3.04987L7.61633 2.66995L8.13869 3.04987L7.9392 2.43531L8.46156 2.05578H7.8156L7.78852 1.97308C7.56962 2.08491 7.353 2.20126 7.14129 2.32508L7.29302 2.43525L7.09375 3.04987Z" fill="#EFEFEF"/>
<path d="M7.61733 3.61151L7.81683 4.22547H8.46279L7.9402 4.60538L8.1397 5.21995L7.61733 4.83998L7.09474 5.21995L7.29424 4.60538L6.77148 4.22547H7.41762L7.61733 3.61151Z" fill="#EFEFEF"/>
<path d="M7.61733 5.78156L7.81683 6.39551H8.46279L7.9402 6.77543L8.1397 7.39L7.61733 7.01002L7.09474 7.39L7.29424 6.77543L6.77148 6.39551H7.41762L7.61733 5.78156Z" fill="#EFEFEF"/>
<path d="M7.61733 7.9516L7.81683 8.56572H8.46279L7.9402 8.94547L8.1397 9.56004L7.61733 9.18007L7.09474 9.56004L7.29424 8.94547L6.77148 8.56572H7.41762L7.61733 7.9516Z" fill="#EFEFEF"/>
<path d="M7.61733 10.1213L7.81683 10.7358H8.46279L7.9402 11.1155L8.1397 11.7301L7.61733 11.3501L7.09474 11.7301L7.29424 11.1155L6.77148 10.7358H7.41762L7.61733 10.1213Z" fill="#EFEFEF"/>
<path d="M9.78627 2.52625L9.98577 3.14059H10.6317L10.1094 3.52056L10.3086 4.13469L9.78627 3.75516L9.26352 4.13469L9.46318 3.52056L8.94043 3.14059H9.58656L9.78627 2.52625Z" fill="#EFEFEF"/>
<path d="M9.78627 4.69635L9.98577 5.31069H10.6317L10.1094 5.69067L10.3086 6.30479L9.78627 5.92526L9.26352 6.30479L9.46318 5.69067L8.94043 5.31069H9.58656L9.78627 4.69635Z" fill="#EFEFEF"/>
<path d="M9.78627 6.86639L9.98577 7.48074H10.6317L10.1094 7.86027L10.3086 8.47483L9.78627 8.0953L9.26352 8.47483L9.46318 7.86027L8.94043 7.48074H9.58656L9.78627 6.86639Z" fill="#EFEFEF"/>
<path d="M9.78627 9.03638L9.98577 9.65094H10.6317L10.1094 10.0303L10.3086 10.6448L9.78627 10.2649L9.26352 10.6448L9.46318 10.0303L8.94043 9.65094H9.58656L9.78627 9.03638Z" fill="#EFEFEF"/>
<path d="M11.9572 1.44147L12.1567 2.05581H12.8026L12.28 2.43534L12.4795 3.04991L11.9572 2.66994L11.4344 3.04991L11.6341 2.43534L11.1113 2.05581H11.7573L11.9572 1.44147Z" fill="#EFEFEF"/>
<path d="M11.9572 3.61151L12.1567 4.22547H12.8026L12.28 4.60538L12.4795 5.21995L11.9572 4.83998L11.4344 5.21995L11.6341 4.60538L11.1113 4.22547H11.7573L11.9572 3.61151Z" fill="#EFEFEF"/>
<path d="M11.9572 5.78156L12.1567 6.39551H12.8026L12.28 6.77543L12.4795 7.39L11.9572 7.01002L11.4344 7.39L11.6341 6.77543L11.1113 6.39551H11.7573L11.9572 5.78156Z" fill="#EFEFEF"/>
<path d="M11.9572 7.9516L12.1567 8.56572H12.8026L12.28 8.94547L12.4795 9.56004L11.9572 9.18007L11.4344 9.56004L11.6341 8.94547L11.1113 8.56572H11.7573L11.9572 7.9516Z" fill="#EFEFEF"/>
<path d="M11.9572 10.1213L12.1567 10.7358H12.8026L12.28 11.1155L12.4795 11.7301L11.9572 11.3501L11.4344 11.7301L11.6341 11.1155L11.1113 10.7358H11.7573L11.9572 10.1213Z" fill="#EFEFEF"/>
</g>
<defs>
<clipPath id="clip0">
<rect width="26.1833" height="26.1833" fill="white" transform="translate(0.657227 0.53418)"/>
</clipPath>
</defs>
</svg>
