<svg width="23" height="22" viewBox="0 0 23 22" fill="none" xmlns="http://www.w3.org/2000/svg">
<g clip-path="url(#clip0)">
<path d="M2.61406 4.76044C1.92332 5.76301 1.39838 6.88872 1.08008 8.09865H5.95246L2.61406 4.76044Z" fill="#29337A"/>
<path d="M8.4392 0.547119C7.20507 0.90653 6.06212 1.48004 5.05566 2.22808L8.4392 5.61162V0.547119Z" fill="#29337A"/>
<path d="M5.30762 19.61C6.25167 20.2706 7.30638 20.782 8.43952 21.112V16.4786L5.30762 19.61Z" fill="#29337A"/>
<path d="M1.20312 13.9924C1.55729 15.1396 2.1 16.2039 2.79359 17.1506L5.95186 13.9924H1.20312Z" fill="#29337A"/>
<path d="M2.79102 4.51184C2.73114 4.5937 2.67212 4.67673 2.61427 4.76063L5.95268 8.09885H1.0803C1.00133 8.39938 0.936884 8.7057 0.883789 9.01622H7.29575L2.79102 4.51184Z" fill="white"/>
<path d="M5.05957 19.4332C5.14107 19.4939 5.22483 19.5517 5.308 19.6099L8.4399 16.4784V21.1118C8.74079 21.1998 9.04638 21.2757 9.35726 21.3367V15.1356L5.05957 19.4332Z" fill="white"/>
<path d="M0.96582 13.075C1.0323 13.3859 1.11077 13.692 1.20362 13.9924H5.9524L2.79413 17.1506C3.13762 17.62 3.51851 18.0604 3.93238 18.4676L9.32495 13.075H0.96582Z" fill="white"/>
<path d="M8.4391 0.547098V5.6116L5.05551 2.22824C4.58905 2.57512 4.15303 2.96022 3.74902 3.37712L9.35628 8.98437V0.322144C9.04558 0.38356 8.73999 0.459676 8.4391 0.547098Z" fill="white"/>
<path d="M8.43996 13.9601L8.40723 13.993H8.43996V13.9601Z" fill="#D32030"/>
<path d="M9.32422 13.0756H9.35691V13.0427L9.32422 13.0756Z" fill="#D32030"/>
<path d="M13.4475 9.01599H13.416V9.04767L13.4475 9.01599Z" fill="#D32030"/>
<path d="M8.47164 8.09938L8.43945 8.06702V8.09938H8.47164Z" fill="#D32030"/>
<path d="M9.35645 8.98438V9.0166H9.38867L9.35645 8.98438Z" fill="#D32030"/>
<path d="M14.332 18.7408V21.1419C15.4799 20.8206 16.5501 20.314 17.5074 19.6541L14.9057 17.0524C14.6978 17.7829 14.6217 18.1605 14.332 18.7408Z" fill="#252F6C"/>
<path d="M14.9194 5.02406L17.7596 2.18391C16.7392 1.43669 15.5817 0.867246 14.332 0.517151V2.98369C14.6661 3.65258 14.6942 4.16083 14.9194 5.02406Z" fill="#252F6C"/>
<path d="M20.04 17.2131C20.7553 16.2509 21.3127 15.1648 21.6748 13.9924H16.8193L20.04 17.2131Z" fill="#252F6C"/>
<path d="M21.7967 8.09882C21.4716 6.86333 20.9309 5.71649 20.2184 4.69818L16.8174 8.09882H21.7967Z" fill="#252F6C"/>
<path d="M15.5449 13.2565L16.281 13.9926L19.8042 17.5158C19.8842 17.4157 19.9637 17.3159 20.0402 17.2132L16.8195 13.9926H21.675C21.7675 13.6923 21.8461 13.3861 21.9124 13.0752H15.6138C15.6034 13.2053 15.5573 13.1273 15.5449 13.2565Z" fill="#E7E7E7"/>
<path d="M14.8077 5.5612L18.001 2.36756C17.921 2.30551 17.8409 2.24378 17.7591 2.1839L14.919 5.02405C14.9484 5.13635 14.7803 5.44619 14.8077 5.5612Z" fill="#E7E7E7"/>
<path d="M14.3324 2.7863V0.516945C14.0319 0.432734 13.7259 0.361368 13.415 0.303162V1.41011C13.7564 1.78015 14.0623 2.24494 14.3324 2.7863Z" fill="#E7E7E7"/>
<path d="M15.4724 9.01595H21.9937C21.9408 8.70543 21.8762 8.39929 21.7972 8.09859H16.8179L20.2189 4.69795C19.8846 4.22032 19.513 3.77113 19.1071 3.35492L15.2764 7.18529C15.3795 7.8801 15.4257 8.28361 15.4724 9.01595Z" fill="#E7E7E7"/>
<path d="M14.751 16.8973L17.5076 19.6542C17.9661 19.3384 18.3979 18.987 18.8007 18.6055L15.1748 14.9794C15.0591 15.65 14.9218 16.2977 14.751 16.8973Z" fill="#E7E7E7"/>
<path d="M13.415 20.1218V21.3556C13.7259 21.2978 14.0317 21.226 14.3324 21.1418V18.7407C14.0621 19.2823 13.7562 19.7523 13.415 20.1218Z" fill="#E7E7E7"/>
<path d="M15.2772 7.1853L19.1076 3.35493C18.7627 3.00076 18.393 2.67116 18.002 2.36755L14.9922 5.37784C15.126 5.93697 15.1867 6.57697 15.2772 7.1853Z" fill="#D71F28"/>
<path d="M10.9043 0.131553C11.0828 0.122915 11.2607 0.118347 11.4387 0.118347C11.2596 0.118347 11.0814 0.122915 10.9043 0.131553Z" fill="#D32030"/>
<path d="M11.4384 21.541C11.2603 21.541 11.0824 21.5362 10.9043 21.5275C11.0814 21.5365 11.2593 21.541 11.4384 21.541Z" fill="#D32030"/>
<path d="M11.4385 21.5409C12.1143 21.5409 12.7742 21.4755 13.4152 21.3556V20.1218C12.8526 20.7317 12.1943 21.5409 11.4385 21.5409Z" fill="#D32030"/>
<path d="M21.9928 9.01599H15.5562C15.6414 10.3594 15.6311 11.7408 15.5254 13.075H21.9113C22.0659 12.3506 22.1487 11.6001 22.1487 10.8299C22.1487 10.2112 22.0936 9.60606 21.9928 9.01599Z" fill="#D71F28"/>
<path d="M15.5448 13.2565C15.4853 13.8894 15.278 14.3826 15.1748 14.9796L18.8007 18.6055C19.1594 18.2655 19.4948 17.9019 19.804 17.5158L16.2809 13.9924L15.5448 13.2565Z" fill="#D71F28"/>
<path d="M13.4153 1.48978V0.303367C12.7745 0.183789 12.1145 0.118347 11.4385 0.118347C12.1943 0.118347 12.8526 0.88009 13.4153 1.48978Z" fill="#D32030"/>
<path d="M14.332 19.2041C14.6217 18.6237 14.8702 17.9554 15.0782 17.2251L14.332 16.4789V19.2041Z" fill="#29337A"/>
<path d="M15.1711 4.77239C14.9454 3.90916 14.6661 3.1244 14.332 2.45551V5.61107L15.1711 4.77239Z" fill="#29337A"/>
<path d="M15.7526 13.4634C15.7648 13.3344 15.7757 13.205 15.7862 13.075H15.3643L15.7526 13.4634Z" fill="white"/>
<path d="M14.3324 5.61108V2.45535C14.0621 1.91399 13.7564 1.44889 13.415 1.07916V6.9543L15.2573 5.11201C15.2296 4.997 15.2005 4.88435 15.1714 4.77205L14.3324 5.61108Z" fill="white"/>
<path d="M13.4463 9.01595H15.8174C15.771 8.28365 15.6969 7.56316 15.5938 6.86853L13.4463 9.01595Z" fill="white"/>
<path d="M13.415 20.5801C13.7564 20.21 14.0621 19.7452 14.3324 19.2039V16.4787L15.0786 17.2249C15.2497 16.625 15.3933 15.9842 15.5094 15.3136L13.4151 13.2195L13.415 20.5801Z" fill="white"/>
<path d="M13.4155 20.5801V13.2195L15.5096 15.3138C15.6126 14.7165 15.6936 14.0972 15.753 13.4642L15.3638 13.075H15.7866C15.8923 11.7408 15.9026 10.3593 15.8174 9.01598H13.4463L15.5937 6.86856C15.5032 6.26004 15.3913 5.67147 15.2575 5.11216L13.4155 6.95444V1.07931C12.8528 0.469437 12.1946 0.118347 11.4387 0.118347C11.2606 0.118347 11.0827 0.122915 10.9043 0.131553C10.3774 0.15792 9.86076 0.222729 9.35639 0.322181V8.98437L3.749 3.37711C3.40447 3.73263 3.084 4.11144 2.79071 4.51179L6.37772 8.0988L7.2954 9.01616H0.883478C0.783031 9.60605 0.727539 10.2112 0.727539 10.8299C0.727539 11.6002 0.810755 12.3506 0.964976 13.075H9.32428L3.93167 18.4676C4.28479 18.8145 4.66076 19.1376 5.05875 19.4332L9.35626 15.1357V21.3369C9.86057 21.4363 10.3776 21.5011 10.9044 21.5275C11.0825 21.5361 11.2605 21.541 11.4386 21.541C12.1946 21.541 12.8528 21.1899 13.4155 20.5801Z" fill="#E51D35"/>
</g>
<defs>
<clipPath id="clip0">
<rect width="21.4227" height="21.4227" fill="white" transform="translate(0.727539 0.118347)"/>
</clipPath>
</defs>
</svg>
